# xmcd
#
# Track frame offsets:
#	150
#	14793
#	30405
#	48952
#	66042
#	81274
#	96611
#	115744
#	132247
#	151482
#	166796
#	182287
#	202813
#	218661
#	232216
#	248412
#	268026
#	284128
#	304008
#	319706
#
# Disc length: 4445 seconds
#
# Revision: 0
# Processed by: cddbd v1.5.2PL0 Copyright (c) Steve Scherf et al.
# Submitted via: EasyCDDAExtractor 16.0.9.1
#
DISCID=14115b14
DTITLE=Nu Urban Traxx Volume 220 US
DYEAR=2015
DGENRE=blues
TTITLE0=Missy Elliott ft. Pharrell Williams - WTF (Where They From)
TTITLE1=Drake and Future - Jumpman
TTITLE2=The Weeknd - Acquainted [Radio Edit]
TTITLE3=Jadakiss ft. Ne-Yo and Nipsey Hussle - Ain't Nothin' New
TTITLE4=Chris Brown - Back To Sleep
TTITLE5=Omarion ft. Rich Homie Quan - I'm Sayin'
TTITLE6=The Game ft. Ice Cube Dr. Dre and will.i.am - Don't Trip
TTITLE7=Jacquees - Like Baby
TTITLE8=Adele - Hello
TTITLE9=Adrian Marcel - Take Your Time
TTITLE10=Eric Bellinger ft. Fetty Wap and 2 Chainz - Valet
TTITLE11=T.I. ft. Yong Thug and Young Dro - Peaut Butter Jelly
TTITLE12=Ro James - Permission
TTITLE13=Ty Dolla $ign ft. E-40 - Saved
TTITLE14=Tate Kobang - Bank Rolls
TTITLE15=Cap 1 ft. Jeremih, 2 Chainz and Verse Simmonds - Tonite
TTITLE16=Nef The Pharoah - Big Tymin'
TTITLE17=Young Dro ft. Rich Homie Quan - Ugh [Remix]
TTITLE18=DJ Luke Nasty - Might Be
TTITLE19=Yakki - Flexx God
EXTD=
EXTT0=
EXTT1=
EXTT2=
EXTT3=
EXTT4=
EXTT5=
EXTT6=
EXTT7=
EXTT8=
EXTT9=
EXTT10=
EXTT11=
EXTT12=
EXTT13=
EXTT14=
EXTT15=
EXTT16=
EXTT17=
EXTT18=
EXTT19=
PLAYORDER=
